<svg width="193" height="41" viewBox="0 0 193 41" fill="none" xmlns="http://www.w3.org/2000/svg">
<circle cx="14.5" cy="14.5" r="10.5" stroke="url(#paint0_angular_12_508)" stroke-width="7.5"/>
<g filter="url(#filter0_d_12_508)">
<path d="M41.9628 9.69055H45.8593L50.6581 23H47.4179L46.2284 19.4932H41.3681L40.1992 23H37.041L41.9628 9.69055ZM45.5312 17.3604L43.8495 12.3565H43.7675L42.0859 17.3604H45.5312ZM52.134 9.69055H58.1222C59.8995 9.69055 61.1847 9.9093 61.9776 10.3468C62.7706 10.7706 63.1671 11.4884 63.1671 12.5001V14.838C63.1671 15.6173 62.8868 16.2325 62.3263 16.6837C61.7794 17.1211 61.048 17.4014 60.132 17.5245L63.9874 23H60.296L56.8097 17.7706H55.3332V23H52.134V9.69055ZM58.0812 15.6583C58.8331 15.6583 59.3458 15.5626 59.6193 15.3712C59.8927 15.1661 60.0294 14.7764 60.0294 14.2022V13.2589C60.0294 12.7667 59.879 12.4317 59.5782 12.254C59.2911 12.0626 58.7921 11.9669 58.0812 11.9669H55.3332V15.6583H58.0812ZM68.9086 11.9669H64.807V9.69055H76.1888V11.9669H72.1078V23H68.9086V11.9669ZM78.0289 9.69055H83.4224C84.6938 9.69055 85.6714 9.78626 86.3549 9.97766C87.0522 10.1554 87.5444 10.4493 87.8315 10.8595C88.1186 11.256 88.2622 11.8165 88.2622 12.5411V14.1817C88.2622 14.5509 88.1118 14.8995 87.811 15.2276C87.5239 15.5557 87.1821 15.7813 86.7856 15.9044V16.0069C87.3051 16.0616 87.7768 16.2872 88.2006 16.6837C88.6381 17.0665 88.8569 17.4971 88.8569 17.9756V20.0264C88.8569 21.1065 88.4262 21.8721 87.5649 22.3232C86.7036 22.7744 85.3706 23 83.5659 23H78.0289V9.69055ZM83.4224 15.1046C83.9282 15.1046 84.3042 15.0636 84.5503 14.9815C84.7964 14.8995 84.9604 14.7696 85.0425 14.5919C85.1382 14.4005 85.186 14.127 85.186 13.7716V13.1153C85.186 12.8009 85.145 12.5685 85.063 12.4181C84.9809 12.254 84.81 12.1378 84.5503 12.0694C84.3042 12.0011 83.9077 11.9669 83.3608 11.9669H81.228V15.1046H83.4224ZM83.5044 20.7237C84.2837 20.7237 84.8374 20.6348 85.1655 20.4571C85.4936 20.2793 85.6577 19.9922 85.6577 19.5957V18.5293C85.6577 18.0372 85.5278 17.6885 85.268 17.4835C85.022 17.2784 84.5776 17.1758 83.9351 17.1758H81.228V20.7237H83.5044ZM96.768 23.2051C92.9263 23.2051 91.0054 21.9199 91.0054 19.3496V9.69055H94.2046V19.3496C94.2046 19.9512 94.396 20.3682 94.7788 20.6006C95.1753 20.8194 95.852 20.9287 96.809 20.9287C97.7524 20.9287 98.4086 20.8194 98.7778 20.6006C99.1606 20.3682 99.352 19.9512 99.352 19.3496V9.69055H102.551V19.3496C102.551 21.9199 100.623 23.2051 96.768 23.2051ZM105.386 9.69055H111.374C113.151 9.69055 114.436 9.9093 115.229 10.3468C116.022 10.7706 116.419 11.4884 116.419 12.5001V14.838C116.419 15.6173 116.139 16.2325 115.578 16.6837C115.031 17.1211 114.3 17.4014 113.384 17.5245L117.239 23H113.548L110.061 17.7706H108.585V23H105.386V9.69055ZM111.333 15.6583C112.085 15.6583 112.598 15.5626 112.871 15.3712C113.144 15.1661 113.281 14.7764 113.281 14.2022V13.2589C113.281 12.7667 113.131 12.4317 112.83 12.254C112.543 12.0626 112.044 11.9669 111.333 11.9669H108.585V15.6583H111.333ZM123.391 23.2051C122.119 23.2051 120.547 23.082 118.674 22.8359V20.3955C120.998 20.751 122.584 20.9287 123.432 20.9287C125.209 20.9287 126.098 20.4707 126.098 19.5547V18.6934C126.098 18.2559 125.968 17.9209 125.708 17.6885C125.462 17.4561 125.011 17.3399 124.355 17.3399H122.796C119.87 17.3399 118.407 16.1778 118.407 13.8536V12.8692C118.407 11.7071 118.893 10.8527 119.863 10.3058C120.834 9.75891 122.372 9.48548 124.478 9.48548C125.571 9.48548 126.959 9.57435 128.641 9.75208V12.131C126.576 11.8849 125.154 11.7618 124.375 11.7618C123.295 11.7618 122.57 11.8507 122.201 12.0284C121.805 12.2198 121.607 12.5206 121.607 12.9308V13.8741C121.607 14.5714 122.194 14.92 123.37 14.92H124.97C126.487 14.92 127.588 15.2003 128.272 15.7608C128.955 16.3214 129.297 17.1758 129.297 18.3243V19.2061C129.297 20.792 128.73 21.8652 127.595 22.4258C127.048 22.7129 126.44 22.9111 125.77 23.0205C125.113 23.1436 124.32 23.2051 123.391 23.2051ZM134.597 11.9669H130.496V9.69055H141.877V11.9669H137.796V23H134.597V11.9669Z" fill="#8205FF" fill-opacity="0.95" shape-rendering="crispEdges"/>
</g>
<defs>
<filter id="filter0_d_12_508" x="33.041" y="9.4856" width="112.836" height="21.7195" filterUnits="userSpaceOnUse" color-interpolation-filters="sRGB">
<feFlood flood-opacity="0" result="BackgroundImageFix"/>
<feColorMatrix in="SourceAlpha" type="matrix" values="0 0 0 0 0 0 0 0 0 0 0 0 0 0 0 0 0 0 127 0" result="hardAlpha"/>
<feOffset dy="4"/>
<feGaussianBlur stdDeviation="2"/>
<feComposite in2="hardAlpha" operator="out"/>
<feColorMatrix type="matrix" values="0 0 0 0 0 0 0 0 0 0 0 0 0 0 0 0 0 0 0.25 0"/>
<feBlend mode="normal" in2="BackgroundImageFix" result="effect1_dropShadow_12_508"/>
<feBlend mode="normal" in="SourceGraphic" in2="effect1_dropShadow_12_508" result="shape"/>
</filter>
<radialGradient id="paint0_angular_12_508" cx="0" cy="0" r="1" gradientUnits="userSpaceOnUse" gradientTransform="translate(14.5 14.5) rotate(90) scale(10.5)">
<stop offset="0.0001" stop-color="#7D9AFF"/>
<stop offset="0.510417" stop-color="#FF7AD2"/>
<stop offset="1" stop-color="#7000FF"/>
</radialGradient>
</defs>
</svg>
